<svg width="22" height="24" viewBox="0 0 22 24" fill="none" xmlns="http://www.w3.org/2000/svg">
<path fill-rule="evenodd" clip-rule="evenodd" d="M16.825 2.11589H17.7C18.6283 2.11589 19.5185 2.51975 20.1749 3.23864C20.8313 3.95753 21.2 4.93256 21.2 5.94922V19.3659C21.2 20.3825 20.8313 21.3576 20.1749 22.0765C19.5185 22.7953 18.6283 23.1992 17.7 23.1992H3.70001C2.77175 23.1992 1.88152 22.7953 1.22514 22.0765C0.568761 21.3576 0.200012 20.3825 0.200012 19.3659V5.94922C0.200012 4.93256 0.568761 3.95753 1.22514 3.23864C1.88152 2.51975 2.77175 2.11589 3.70001 2.11589H4.57501V1.15755C4.57501 0.903386 4.6672 0.65963 4.83129 0.479908C4.99539 0.300186 5.21795 0.199219 5.45001 0.199219C5.68208 0.199219 5.90464 0.300186 6.06873 0.479908C6.23282 0.65963 6.32501 0.903386 6.32501 1.15755V2.11589H15.075V1.15755C15.075 0.903386 15.1672 0.65963 15.3313 0.479908C15.4954 0.300186 15.7179 0.199219 15.95 0.199219C16.1821 0.199219 16.4046 0.300186 16.5687 0.479908C16.7328 0.65963 16.825 0.903386 16.825 1.15755V2.11589ZM18.9374 20.7212C19.2656 20.3617 19.45 19.8742 19.45 19.3659V5.94922C19.45 5.44089 19.2656 4.95338 18.9374 4.59393C18.6093 4.23449 18.1641 4.03255 17.7 4.03255H16.825V4.99089C16.825 5.24505 16.7328 5.48881 16.5687 5.66853C16.4046 5.84825 16.1821 5.94922 15.95 5.94922C15.7179 5.94922 15.4954 5.84825 15.3313 5.66853C15.1672 5.48881 15.075 5.24505 15.075 4.99089V4.03255H6.32501V4.99089C6.32501 5.24505 6.23282 5.48881 6.06873 5.66853C5.90464 5.84825 5.68208 5.94922 5.45001 5.94922C5.21795 5.94922 4.99539 5.84825 4.83129 5.66853C4.6672 5.48881 4.57501 5.24505 4.57501 4.99089V4.03255H3.70001C3.23588 4.03255 2.79076 4.23449 2.46258 4.59393C2.13439 4.95338 1.95001 5.44089 1.95001 5.94922V19.3659C1.95001 19.8742 2.13439 20.3617 2.46258 20.7212C2.79076 21.0806 3.23588 21.2826 3.70001 21.2826H17.7C18.1641 21.2826 18.6093 21.0806 18.9374 20.7212ZM4.5757 6.91016H16.8257C17.0578 6.91016 17.2803 7.01112 17.4444 7.19085C17.6085 7.37057 17.7007 7.61432 17.7007 7.86849C17.7007 8.12266 17.6085 8.36641 17.4444 8.54613C17.2803 8.72586 17.0578 8.82682 16.8257 8.82682H4.5757C4.34363 8.82682 4.12107 8.72586 3.95698 8.54613C3.79288 8.36641 3.7007 8.12266 3.7007 7.86849C3.7007 7.61432 3.79288 7.37057 3.95698 7.19085C4.12107 7.01112 4.34363 6.91016 4.5757 6.91016ZM6.3257 11.6992H4.5757C4.34363 11.6992 4.12107 11.8002 3.95698 11.9799C3.79288 12.1596 3.7007 12.4034 3.7007 12.6576C3.7007 12.9117 3.79288 13.1555 3.95698 13.3352C4.12107 13.5149 4.34363 13.6159 4.5757 13.6159H6.3257C6.55776 13.6159 6.78032 13.5149 6.94441 13.3352C7.10851 13.1555 7.2007 12.9117 7.2007 12.6576C7.2007 12.4034 7.10851 12.1596 6.94441 11.9799C6.78032 11.8002 6.55776 11.6992 6.3257 11.6992ZM4.5757 16.4883H6.3257C6.55776 16.4883 6.78032 16.5892 6.94441 16.769C7.10851 16.9487 7.2007 17.1924 7.2007 17.4466C7.2007 17.7008 7.10851 17.9445 6.94441 18.1243C6.78032 18.304 6.55776 18.4049 6.3257 18.4049H4.5757C4.34363 18.4049 4.12107 18.304 3.95698 18.1243C3.79288 17.9445 3.7007 17.7008 3.7007 17.4466C3.7007 17.1924 3.79288 16.9487 3.95698 16.769C4.12107 16.5892 4.34363 16.4883 4.5757 16.4883ZM11.5757 11.6992H9.8257C9.59363 11.6992 9.37107 11.8002 9.20698 11.9799C9.04288 12.1596 8.9507 12.4034 8.9507 12.6576C8.9507 12.9117 9.04288 13.1555 9.20698 13.3352C9.37107 13.5149 9.59363 13.6159 9.8257 13.6159H11.5757C11.8078 13.6159 12.0303 13.5149 12.1944 13.3352C12.3585 13.1555 12.4507 12.9117 12.4507 12.6576C12.4507 12.4034 12.3585 12.1596 12.1944 11.9799C12.0303 11.8002 11.8078 11.6992 11.5757 11.6992ZM9.8257 16.4883H11.5757C11.8078 16.4883 12.0303 16.5892 12.1944 16.769C12.3585 16.9487 12.4507 17.1924 12.4507 17.4466C12.4507 17.7008 12.3585 17.9445 12.1944 18.1243C12.0303 18.304 11.8078 18.4049 11.5757 18.4049H9.8257C9.59363 18.4049 9.37107 18.304 9.20698 18.1243C9.04288 17.9445 8.9507 17.7008 8.9507 17.4466C8.9507 17.1924 9.04288 16.9487 9.20698 16.769C9.37107 16.5892 9.59363 16.4883 9.8257 16.4883ZM16.8257 11.6992H15.0757C14.8436 11.6992 14.6211 11.8002 14.457 11.9799C14.2929 12.1596 14.2007 12.4034 14.2007 12.6576C14.2007 12.9117 14.2929 13.1555 14.457 13.3352C14.6211 13.5149 14.8436 13.6159 15.0757 13.6159H16.8257C17.0578 13.6159 17.2803 13.5149 17.4444 13.3352C17.6085 13.1555 17.7007 12.9117 17.7007 12.6576C17.7007 12.4034 17.6085 12.1596 17.4444 11.9799C17.2803 11.8002 17.0578 11.6992 16.8257 11.6992ZM15.0757 16.4883H16.8257C17.0578 16.4883 17.2803 16.5892 17.4444 16.769C17.6085 16.9487 17.7007 17.1924 17.7007 17.4466C17.7007 17.7008 17.6085 17.9445 17.4444 18.1243C17.2803 18.304 17.0578 18.4049 16.8257 18.4049H15.0757C14.8436 18.4049 14.6211 18.304 14.457 18.1243C14.2929 17.9445 14.2007 17.7008 14.2007 17.4466C14.2007 17.1924 14.2929 16.9487 14.457 16.769C14.6211 16.5892 14.8436 16.4883 15.0757 16.4883Z" fill="white"/>
<path d="M16.825 2.11589H16.625V2.31589H16.825V2.11589ZM20.1749 3.23864L20.0272 3.3735V3.3735L20.1749 3.23864ZM20.1749 22.0765L20.0272 21.9416V21.9416L20.1749 22.0765ZM1.22514 22.0765L1.07744 22.2113V22.2113L1.22514 22.0765ZM1.22514 3.23864L1.07744 3.10379V3.10379L1.22514 3.23864ZM4.57501 2.11589V2.31589H4.77501V2.11589H4.57501ZM4.83129 0.479908L4.6836 0.345054L4.6836 0.345054L4.83129 0.479908ZM6.06873 0.479908L5.92103 0.614762L5.92103 0.614762L6.06873 0.479908ZM6.32501 2.11589H6.12501V2.31589H6.32501V2.11589ZM15.075 2.11589V2.31589H15.275V2.11589H15.075ZM15.3313 0.479908L15.1836 0.345054L15.1836 0.345054L15.3313 0.479908ZM16.5687 0.479908L16.7164 0.345055V0.345054L16.5687 0.479908ZM18.9374 20.7212L18.7897 20.5863V20.5863L18.9374 20.7212ZM18.9374 4.59393L18.7897 4.72878V4.72879L18.9374 4.59393ZM16.825 4.03255V3.83255H16.625V4.03255H16.825ZM16.5687 5.66853L16.7164 5.80338V5.80338L16.5687 5.66853ZM15.3313 5.66853L15.1836 5.80338L15.1836 5.80338L15.3313 5.66853ZM15.075 4.03255H15.275V3.83255H15.075V4.03255ZM6.32501 4.03255V3.83255H6.12501V4.03255H6.32501ZM6.06873 5.66853L5.92103 5.53368H5.92103L6.06873 5.66853ZM4.83129 5.66853L4.6836 5.80338H4.6836L4.83129 5.66853ZM4.57501 4.03255H4.77501V3.83255H4.57501V4.03255ZM2.46258 4.59393L2.61027 4.72878H2.61027L2.46258 4.59393ZM1.95001 5.94922H2.15001V5.94922H1.95001ZM2.46258 20.7212L2.61027 20.5863H2.61027L2.46258 20.7212ZM17.4444 7.19085L17.2967 7.3257V7.3257L17.4444 7.19085ZM17.4444 8.54613L17.2967 8.41128V8.41128L17.4444 8.54613ZM3.95698 8.54613L4.10467 8.41128L4.10467 8.41128L3.95698 8.54613ZM3.95698 7.19085L4.10467 7.3257V7.3257L3.95698 7.19085ZM3.95698 11.9799L3.80928 11.8451L3.80928 11.8451L3.95698 11.9799ZM3.95698 13.3352L4.10467 13.2003L4.10467 13.2003L3.95698 13.3352ZM6.94441 13.3352L6.79672 13.2003L6.79672 13.2003L6.94441 13.3352ZM6.94441 11.9799L7.09211 11.8451L7.09211 11.8451L6.94441 11.9799ZM6.94441 16.769L6.79672 16.9038H6.79672L6.94441 16.769ZM6.94441 18.1243L7.09211 18.2591H7.09211L6.94441 18.1243ZM3.95698 18.1243L3.80928 18.2591H3.80928L3.95698 18.1243ZM3.95698 16.769L4.10467 16.9038H4.10467L3.95698 16.769ZM9.20698 11.9799L9.05928 11.8451V11.8451L9.20698 11.9799ZM9.20698 13.3352L9.35468 13.2003V13.2003L9.20698 13.3352ZM12.1944 13.3352L12.0467 13.2003V13.2003L12.1944 13.3352ZM12.1944 11.9799L12.3421 11.8451V11.8451L12.1944 11.9799ZM12.1944 16.769L12.0467 16.9038V16.9038L12.1944 16.769ZM12.1944 18.1243L12.3421 18.2591V18.2591L12.1944 18.1243ZM9.20698 18.1243L9.05928 18.2591V18.2591L9.20698 18.1243ZM9.20698 16.769L9.35468 16.9038V16.9038L9.20698 16.769ZM14.457 11.9799L14.3093 11.8451V11.8451L14.457 11.9799ZM14.457 13.3352L14.6047 13.2003V13.2003L14.457 13.3352ZM17.4444 13.3352L17.5921 13.47V13.47L17.4444 13.3352ZM17.4444 11.9799L17.5921 11.8451V11.8451L17.4444 11.9799ZM17.4444 16.769L17.5921 16.6341V16.6341L17.4444 16.769ZM17.4444 18.1243L17.5921 18.2591V18.2591L17.4444 18.1243ZM14.457 18.1243L14.3093 18.2591V18.2591L14.457 18.1243ZM14.457 16.769L14.6047 16.9038V16.9038L14.457 16.769ZM17.7 1.91589H16.825V2.31589H17.7V1.91589ZM20.3226 3.10379C19.6304 2.34568 18.6875 1.91589 17.7 1.91589V2.31589C18.5691 2.31589 19.4066 2.69383 20.0272 3.3735L20.3226 3.10379ZM21.4 5.94922C21.4 4.88509 21.0142 3.86129 20.3226 3.10379L20.0272 3.3735C20.6483 4.05378 21 4.98002 21 5.94922H21.4ZM21.4 19.3659V5.94922H21V19.3659H21.4ZM20.3226 22.2113C21.0142 21.4538 21.4 20.43 21.4 19.3659H21C21 20.3351 20.6483 21.2613 20.0272 21.9416L20.3226 22.2113ZM17.7 23.3992C18.6875 23.3992 19.6304 22.9694 20.3226 22.2113L20.0272 21.9416C19.4066 22.6213 18.5691 22.9992 17.7 22.9992V23.3992ZM3.70001 23.3992H17.7V22.9992H3.70001V23.3992ZM1.07744 22.2113C1.76963 22.9694 2.71254 23.3992 3.70001 23.3992V22.9992C2.83097 22.9992 1.9934 22.6213 1.37284 21.9416L1.07744 22.2113ZM1.22041e-05 19.3659C1.22041e-05 20.43 0.385811 21.4538 1.07744 22.2113L1.37284 21.9416C0.751712 21.2613 0.400012 20.3351 0.400012 19.3659H1.22041e-05ZM1.22041e-05 5.94922V19.3659H0.400012V5.94922H1.22041e-05ZM1.07744 3.10379C0.385811 3.86129 1.22041e-05 4.88509 1.22041e-05 5.94922H0.400012C0.400012 4.98002 0.751712 4.05378 1.37284 3.3735L1.07744 3.10379ZM3.70001 1.91589C2.71254 1.91589 1.76963 2.34568 1.07744 3.10379L1.37284 3.3735C1.9934 2.69383 2.83097 2.31589 3.70001 2.31589V1.91589ZM4.57501 1.91589H3.70001V2.31589H4.57501V1.91589ZM4.37501 1.15755V2.11589H4.77501V1.15755H4.37501ZM4.6836 0.345054C4.48425 0.563388 4.37501 0.855918 4.37501 1.15755H4.77501C4.77501 0.950855 4.85015 0.755873 4.97899 0.614762L4.6836 0.345054ZM5.45001 -0.000781253C5.15873 -0.000781253 4.8835 0.126114 4.6836 0.345054L4.97899 0.614762C5.10728 0.474258 5.27717 0.399219 5.45001 0.399219V-0.000781253ZM6.21643 0.345054C6.01653 0.126114 5.74129 -0.000781253 5.45001 -0.000781253V0.399219C5.62286 0.399219 5.79275 0.474258 5.92103 0.614762L6.21643 0.345054ZM6.52501 1.15755C6.52501 0.855918 6.41577 0.563387 6.21643 0.345054L5.92103 0.614762C6.04987 0.755874 6.12501 0.950855 6.12501 1.15755H6.52501ZM6.52501 2.11589V1.15755H6.12501V2.11589H6.52501ZM15.075 1.91589H6.32501V2.31589H15.075V1.91589ZM14.875 1.15755V2.11589H15.275V1.15755H14.875ZM15.1836 0.345054C14.9842 0.563388 14.875 0.855918 14.875 1.15755H15.275C15.275 0.950854 15.3501 0.755873 15.479 0.614762L15.1836 0.345054ZM15.95 -0.000781253C15.6587 -0.000781253 15.3835 0.126113 15.1836 0.345054L15.479 0.614762C15.6073 0.474258 15.7772 0.399219 15.95 0.399219V-0.000781253ZM16.7164 0.345054C16.5165 0.126113 16.2413 -0.000781253 15.95 -0.000781253V0.399219C16.1229 0.399219 16.2927 0.474258 16.421 0.614762L16.7164 0.345054ZM17.025 1.15755C17.025 0.855918 16.9158 0.563388 16.7164 0.345055L16.421 0.614761C16.5499 0.755873 16.625 0.950855 16.625 1.15755H17.025ZM17.025 2.11589V1.15755H16.625V2.11589H17.025ZM19.25 19.3659C19.25 19.8267 19.0827 20.2655 18.7897 20.5863L19.0851 20.856C19.4486 20.458 19.65 19.9217 19.65 19.3659H19.25ZM19.25 5.94922V19.3659H19.65V5.94922H19.25ZM18.7897 4.72879C19.0827 5.04962 19.25 5.48836 19.25 5.94922H19.65C19.65 5.39342 19.4486 4.85713 19.0851 4.45908L18.7897 4.72879ZM17.7 4.23255C18.1049 4.23255 18.4974 4.40856 18.7897 4.72878L19.0851 4.45908C18.7211 4.06041 18.2234 3.83255 17.7 3.83255V4.23255ZM16.825 4.23255H17.7V3.83255H16.825V4.23255ZM17.025 4.99089V4.03255H16.625V4.99089H17.025ZM16.7164 5.80338C16.9158 5.58505 17.025 5.29252 17.025 4.99089H16.625C16.625 5.19758 16.5499 5.39256 16.421 5.53368L16.7164 5.80338ZM15.95 6.14922C16.2413 6.14922 16.5165 6.02232 16.7164 5.80338L16.421 5.53367C16.2927 5.67418 16.1229 5.74922 15.95 5.74922V6.14922ZM15.1836 5.80338C15.3835 6.02232 15.6587 6.14922 15.95 6.14922V5.74922C15.7772 5.74922 15.6073 5.67418 15.479 5.53367L15.1836 5.80338ZM14.875 4.99089C14.875 5.29252 14.9842 5.58505 15.1836 5.80338L15.479 5.53368C15.3501 5.39256 15.275 5.19758 15.275 4.99089H14.875ZM14.875 4.03255V4.99089H15.275V4.03255H14.875ZM6.32501 4.23255H15.075V3.83255H6.32501V4.23255ZM6.52501 4.99089V4.03255H6.12501V4.99089H6.52501ZM6.21643 5.80338C6.41577 5.58505 6.52501 5.29252 6.52501 4.99089H6.12501C6.12501 5.19758 6.04987 5.39256 5.92103 5.53368L6.21643 5.80338ZM5.45001 6.14922C5.74129 6.14922 6.01653 6.02232 6.21643 5.80338L5.92103 5.53368C5.79275 5.67418 5.62286 5.74922 5.45001 5.74922V6.14922ZM4.6836 5.80338C4.8835 6.02232 5.15873 6.14922 5.45001 6.14922V5.74922C5.27717 5.74922 5.10728 5.67418 4.97899 5.53368L4.6836 5.80338ZM4.37501 4.99089C4.37501 5.29252 4.48425 5.58505 4.6836 5.80338L4.97899 5.53368C4.85015 5.39256 4.77501 5.19758 4.77501 4.99089H4.37501ZM4.37501 4.03255V4.99089H4.77501V4.03255H4.37501ZM3.70001 4.23255H4.57501V3.83255H3.70001V4.23255ZM2.61027 4.72878C2.90265 4.40856 3.2951 4.23255 3.70001 4.23255V3.83255C3.17667 3.83255 2.67887 4.06041 2.31488 4.45908L2.61027 4.72878ZM2.15001 5.94922C2.15001 5.48836 2.31734 5.04962 2.61027 4.72878L2.31488 4.45908C1.95144 4.85713 1.75001 5.39342 1.75001 5.94922H2.15001ZM2.15001 19.3659V5.94922H1.75001V19.3659H2.15001ZM2.61027 20.5863C2.31734 20.2655 2.15001 19.8267 2.15001 19.3659H1.75001C1.75001 19.9217 1.95144 20.458 2.31488 20.856L2.61027 20.5863ZM3.70001 21.0826C3.2951 21.0826 2.90265 20.9065 2.61027 20.5863L2.31488 20.856C2.67887 21.2547 3.17666 21.4826 3.70001 21.4826V21.0826ZM17.7 21.0826H3.70001V21.4826H17.7V21.0826ZM18.7897 20.5863C18.4974 20.9065 18.1049 21.0826 17.7 21.0826V21.4826C18.2234 21.4826 18.7211 21.2547 19.0851 20.856L18.7897 20.5863ZM16.8257 6.71016H4.5757V7.11016H16.8257V6.71016ZM17.5921 7.05599C17.3922 6.83705 17.117 6.71016 16.8257 6.71016V7.11016C16.9985 7.11016 17.1684 7.1852 17.2967 7.3257L17.5921 7.05599ZM17.9007 7.86849C17.9007 7.56686 17.7915 7.27433 17.5921 7.05599L17.2967 7.3257C17.4256 7.46681 17.5007 7.66179 17.5007 7.86849H17.9007ZM17.5921 8.68099C17.7915 8.46265 17.9007 8.17012 17.9007 7.86849H17.5007C17.5007 8.07519 17.4256 8.27017 17.2967 8.41128L17.5921 8.68099ZM16.8257 9.02682C17.117 9.02682 17.3922 8.89993 17.5921 8.68099L17.2967 8.41128C17.1684 8.55178 16.9985 8.62682 16.8257 8.62682V9.02682ZM4.5757 9.02682H16.8257V8.62682H4.5757V9.02682ZM3.80928 8.68099C4.00918 8.89993 4.28441 9.02682 4.5757 9.02682V8.62682C4.40285 8.62682 4.23296 8.55178 4.10467 8.41128L3.80928 8.68099ZM3.5007 7.86849C3.5007 8.17012 3.60993 8.46265 3.80928 8.68099L4.10467 8.41128C3.97583 8.27017 3.9007 8.07519 3.9007 7.86849H3.5007ZM3.80928 7.05599C3.60993 7.27433 3.5007 7.56686 3.5007 7.86849H3.9007C3.9007 7.66179 3.97583 7.46681 4.10467 7.3257L3.80928 7.05599ZM4.5757 6.71016C4.28441 6.71016 4.00918 6.83705 3.80928 7.05599L4.10467 7.3257C4.23296 7.1852 4.40285 7.11016 4.5757 7.11016V6.71016ZM4.5757 11.8992H6.3257V11.4992H4.5757V11.8992ZM4.10467 12.1148C4.23296 11.9743 4.40285 11.8992 4.5757 11.8992V11.4992C4.28441 11.4992 4.00918 11.6261 3.80928 11.8451L4.10467 12.1148ZM3.9007 12.6576C3.9007 12.4509 3.97583 12.2559 4.10467 12.1148L3.80928 11.8451C3.60993 12.0634 3.5007 12.3559 3.5007 12.6576H3.9007ZM4.10467 13.2003C3.97583 13.0592 3.9007 12.8642 3.9007 12.6576H3.5007C3.5007 12.9592 3.60993 13.2517 3.80928 13.47L4.10467 13.2003ZM4.5757 13.4159C4.40285 13.4159 4.23296 13.3408 4.10467 13.2003L3.80928 13.47C4.00918 13.689 4.28441 13.8159 4.5757 13.8159V13.4159ZM6.3257 13.4159H4.5757V13.8159H6.3257V13.4159ZM6.79672 13.2003C6.66843 13.3408 6.49854 13.4159 6.3257 13.4159V13.8159C6.61698 13.8159 6.89221 13.689 7.09211 13.47L6.79672 13.2003ZM7.0007 12.6576C7.0007 12.8642 6.92556 13.0592 6.79672 13.2003L7.09211 13.47C7.29146 13.2517 7.4007 12.9592 7.4007 12.6576H7.0007ZM6.79672 12.1148C6.92556 12.2559 7.0007 12.4509 7.0007 12.6576H7.4007C7.4007 12.3559 7.29146 12.0634 7.09211 11.8451L6.79672 12.1148ZM6.3257 11.8992C6.49854 11.8992 6.66843 11.9743 6.79672 12.1148L7.09211 11.8451C6.89221 11.6261 6.61698 11.4992 6.3257 11.4992V11.8992ZM6.3257 16.2883H4.5757V16.6883H6.3257V16.2883ZM7.09211 16.6341C6.89221 16.4152 6.61698 16.2883 6.3257 16.2883V16.6883C6.49854 16.6883 6.66843 16.7633 6.79672 16.9038L7.09211 16.6341ZM7.4007 17.4466C7.4007 17.145 7.29146 16.8524 7.09211 16.6341L6.79672 16.9038C6.92556 17.0449 7.0007 17.2399 7.0007 17.4466H7.4007ZM7.09211 18.2591C7.29146 18.0408 7.4007 17.7482 7.4007 17.4466H7.0007C7.0007 17.6533 6.92556 17.8483 6.79672 17.9894L7.09211 18.2591ZM6.3257 18.6049C6.61698 18.6049 6.89221 18.4781 7.09211 18.2591L6.79672 17.9894C6.66843 18.1299 6.49854 18.2049 6.3257 18.2049V18.6049ZM4.5757 18.6049H6.3257V18.2049H4.5757V18.6049ZM3.80928 18.2591C4.00918 18.4781 4.28441 18.6049 4.5757 18.6049V18.2049C4.40285 18.2049 4.23296 18.1299 4.10467 17.9894L3.80928 18.2591ZM3.5007 17.4466C3.5007 17.7482 3.60993 18.0408 3.80928 18.2591L4.10468 17.9894C3.97583 17.8483 3.9007 17.6533 3.9007 17.4466H3.5007ZM3.80928 16.6341C3.60993 16.8524 3.5007 17.145 3.5007 17.4466H3.9007C3.9007 17.2399 3.97583 17.0449 4.10467 16.9038L3.80928 16.6341ZM4.5757 16.2883C4.28441 16.2883 4.00918 16.4152 3.80928 16.6341L4.10467 16.9038C4.23296 16.7633 4.40285 16.6883 4.5757 16.6883V16.2883ZM9.8257 11.8992H11.5757V11.4992H9.8257V11.8992ZM9.35468 12.1148C9.48296 11.9743 9.65285 11.8992 9.8257 11.8992V11.4992C9.53441 11.4992 9.25918 11.6261 9.05928 11.8451L9.35468 12.1148ZM9.1507 12.6576C9.1507 12.4509 9.22583 12.2559 9.35468 12.1148L9.05928 11.8451C8.85993 12.0634 8.7507 12.3559 8.7507 12.6576H9.1507ZM9.35468 13.2003C9.22583 13.0592 9.1507 12.8642 9.1507 12.6576H8.7507C8.7507 12.9592 8.85993 13.2517 9.05928 13.47L9.35468 13.2003ZM9.8257 13.4159C9.65285 13.4159 9.48296 13.3408 9.35468 13.2003L9.05928 13.47C9.25918 13.689 9.53441 13.8159 9.8257 13.8159V13.4159ZM11.5757 13.4159H9.8257V13.8159H11.5757V13.4159ZM12.0467 13.2003C11.9184 13.3408 11.7485 13.4159 11.5757 13.4159V13.8159C11.867 13.8159 12.1422 13.689 12.3421 13.47L12.0467 13.2003ZM12.2507 12.6576C12.2507 12.8642 12.1756 13.0592 12.0467 13.2003L12.3421 13.47C12.5415 13.2517 12.6507 12.9592 12.6507 12.6576H12.2507ZM12.0467 12.1148C12.1756 12.2559 12.2507 12.4509 12.2507 12.6576H12.6507C12.6507 12.3559 12.5415 12.0634 12.3421 11.8451L12.0467 12.1148ZM11.5757 11.8992C11.7485 11.8992 11.9184 11.9743 12.0467 12.1148L12.3421 11.8451C12.1422 11.6261 11.867 11.4992 11.5757 11.4992V11.8992ZM11.5757 16.2883H9.8257V16.6883H11.5757V16.2883ZM12.3421 16.6341C12.1422 16.4152 11.867 16.2883 11.5757 16.2883V16.6883C11.7485 16.6883 11.9184 16.7633 12.0467 16.9038L12.3421 16.6341ZM12.6507 17.4466C12.6507 17.145 12.5415 16.8524 12.3421 16.6341L12.0467 16.9038C12.1756 17.0449 12.2507 17.2399 12.2507 17.4466H12.6507ZM12.3421 18.2591C12.5415 18.0408 12.6507 17.7482 12.6507 17.4466H12.2507C12.2507 17.6533 12.1756 17.8483 12.0467 17.9894L12.3421 18.2591ZM11.5757 18.6049C11.867 18.6049 12.1422 18.4781 12.3421 18.2591L12.0467 17.9894C11.9184 18.1299 11.7485 18.2049 11.5757 18.2049V18.6049ZM9.8257 18.6049H11.5757V18.2049H9.8257V18.6049ZM9.05928 18.2591C9.25918 18.4781 9.53441 18.6049 9.8257 18.6049V18.2049C9.65285 18.2049 9.48296 18.1299 9.35468 17.9894L9.05928 18.2591ZM8.7507 17.4466C8.7507 17.7482 8.85993 18.0408 9.05928 18.2591L9.35468 17.9894C9.22583 17.8483 9.1507 17.6533 9.1507 17.4466H8.7507ZM9.05928 16.6341C8.85993 16.8524 8.7507 17.145 8.7507 17.4466H9.1507C9.1507 17.2399 9.22583 17.0449 9.35468 16.9038L9.05928 16.6341ZM9.8257 16.2883C9.53441 16.2883 9.25918 16.4152 9.05928 16.6341L9.35468 16.9038C9.48296 16.7633 9.65285 16.6883 9.8257 16.6883V16.2883ZM15.0757 11.8992H16.8257V11.4992H15.0757V11.8992ZM14.6047 12.1148C14.733 11.9743 14.9029 11.8992 15.0757 11.8992V11.4992C14.7844 11.4992 14.5092 11.6261 14.3093 11.8451L14.6047 12.1148ZM14.4007 12.6576C14.4007 12.4509 14.4758 12.2559 14.6047 12.1148L14.3093 11.8451C14.1099 12.0634 14.0007 12.3559 14.0007 12.6576H14.4007ZM14.6047 13.2003C14.4758 13.0592 14.4007 12.8642 14.4007 12.6576H14.0007C14.0007 12.9592 14.1099 13.2517 14.3093 13.47L14.6047 13.2003ZM15.0757 13.4159C14.9029 13.4159 14.733 13.3408 14.6047 13.2003L14.3093 13.47C14.5092 13.689 14.7844 13.8159 15.0757 13.8159V13.4159ZM16.8257 13.4159H15.0757V13.8159H16.8257V13.4159ZM17.2967 13.2003C17.1684 13.3408 16.9985 13.4159 16.8257 13.4159V13.8159C17.117 13.8159 17.3922 13.689 17.5921 13.47L17.2967 13.2003ZM17.5007 12.6576C17.5007 12.8643 17.4256 13.0592 17.2967 13.2003L17.5921 13.47C17.7915 13.2517 17.9007 12.9592 17.9007 12.6576H17.5007ZM17.2967 12.1148C17.4256 12.2559 17.5007 12.4509 17.5007 12.6576H17.9007C17.9007 12.3559 17.7915 12.0634 17.5921 11.8451L17.2967 12.1148ZM16.8257 11.8992C16.9985 11.8992 17.1684 11.9743 17.2967 12.1148L17.5921 11.8451C17.3922 11.6261 17.117 11.4992 16.8257 11.4992V11.8992ZM16.8257 16.2883H15.0757V16.6883H16.8257V16.2883ZM17.5921 16.6341C17.3922 16.4152 17.117 16.2883 16.8257 16.2883V16.6883C16.9985 16.6883 17.1684 16.7633 17.2967 16.9038L17.5921 16.6341ZM17.9007 17.4466C17.9007 17.145 17.7915 16.8525 17.5921 16.6341L17.2967 16.9038C17.4256 17.0449 17.5007 17.2399 17.5007 17.4466H17.9007ZM17.5921 18.2591C17.7915 18.0408 17.9007 17.7482 17.9007 17.4466H17.5007C17.5007 17.6533 17.4256 17.8483 17.2967 17.9894L17.5921 18.2591ZM16.8257 18.6049C17.117 18.6049 17.3922 18.4781 17.5921 18.2591L17.2967 17.9894C17.1684 18.1299 16.9985 18.2049 16.8257 18.2049V18.6049ZM15.0757 18.6049H16.8257V18.2049H15.0757V18.6049ZM14.3093 18.2591C14.5092 18.4781 14.7844 18.6049 15.0757 18.6049V18.2049C14.9028 18.2049 14.733 18.1299 14.6047 17.9894L14.3093 18.2591ZM14.0007 17.4466C14.0007 17.7482 14.1099 18.0408 14.3093 18.2591L14.6047 17.9894C14.4758 17.8483 14.4007 17.6533 14.4007 17.4466H14.0007ZM14.3093 16.6341C14.1099 16.8524 14.0007 17.145 14.0007 17.4466H14.4007C14.4007 17.2399 14.4758 17.0449 14.6047 16.9038L14.3093 16.6341ZM15.0757 16.2883C14.7844 16.2883 14.5092 16.4152 14.3093 16.6341L14.6047 16.9038C14.733 16.7633 14.9028 16.6883 15.0757 16.6883V16.2883Z" fill="#1F263E"/>
</svg>
